<svg width="278" height="271" viewBox="0 0 278 271" fill="none" xmlns="http://www.w3.org/2000/svg">
  <path d="M4.53906 59.6791C15.6749 42.9754 45.9643 19.5902 78.0355 59.6791" stroke="#FE01DC" stroke-width="9.08067" stroke-linecap="round"/>
  <path d="M197.047 26.6791C208.183 9.9754 238.472 -13.4098 270.543 26.6791" stroke="#FE01DC" stroke-width="9.08067" stroke-linecap="round"/>
  <path d="M14.8301 84.0303C17.3799 73.124 36.218 64.201 52.9316 64.9092C64.1214 65.1925 76.1614 70.0077 81.9688 80.7725C84.5183 84.5967 85.6513 88.9879 85.6514 94.0869L75.0996 184.466C69.0127 233.876 244.814 179.028 277.868 112.013L253.08 184.466C159.03 309.971 75.0994 274.556 48.1162 222.604C45.2834 219.772 58.5318 154.287 58.5322 150.036L65.6797 88.5635C65.1129 91.5381 62.1381 97.4872 47.9746 101.878C15.5386 113.209 18.6543 148.903 49.957 143.096C49.8495 143.152 21.0414 158.094 10.1553 149.753C-4.43367 137.43 5.34001 105.136 50.2402 99.3281C66.6708 95.9287 65.1133 83.3223 65.1133 83.3223C65.1133 78.9314 63.1297 72.699 60.4385 70.0078C57.7473 67.4584 53.0734 66.1837 48.1162 66.042C33.1024 66.7502 26.7279 80.6306 26.3027 87.9961L14.8301 84.0303ZM196.934 203.965C145.647 239.27 98.4393 223.155 81.2461 210.685C85.4237 221.218 102.205 241.994 135.912 240.832C169.619 239.669 190.637 215.77 196.934 203.965ZM194.724 38.5635L178.271 70.749C187.423 58.9962 202.571 48.8068 214.903 43.2373C236.858 33.1807 262.778 42.9546 272.693 64.9092C282.608 86.8637 272.977 112.643 251.022 122.699C229.068 132.614 182.043 121.618 171.986 99.6631C169.894 95.0304 169.618 90.2814 170.691 85.5791L152.515 121.141C132.401 173.69 112.43 181.339 92.458 164.342C76.3108 142.529 117.528 120.433 147.557 122.841C130.56 97.062 102.09 80.9145 102.09 38.1387H103.081V38.2803H123.336C121.92 76.9485 151.665 89.9799 159.03 105.561L193.591 37.9971L194.724 38.5635ZM147.698 122.982C119.936 122.274 96.5659 136.014 101.807 150.036C104.215 156.693 110.305 161.225 117.245 162.358C130.559 164.483 139.484 147.912 149.257 125.532L148.974 125.39L149.115 125.248C148.69 124.398 148.123 123.691 147.698 122.982ZM254.988 72.9824C245.073 51.3111 227.368 38.4213 215.187 43.9453C203.147 49.3278 201.164 71.4245 211.079 92.9541C220.852 114.484 238.558 127.514 250.739 121.99C262.92 116.466 264.762 94.5119 254.988 72.9824Z" fill="white"/>
</svg>
