<svg width="80" height="78" viewBox="0 0 80 78" fill="none" xmlns="http://www.w3.org/2000/svg">
<path d="M1.30469 17.1524C4.50524 12.3516 13.2107 5.63042 22.4283 17.1524" stroke="#FE01DC" stroke-width="2.60988" stroke-linecap="round"/>
<path d="M56.6328 7.66804C59.8334 2.86721 68.5389 -3.85395 77.7565 7.66804" stroke="#FE01DC" stroke-width="2.60988" stroke-linecap="round"/>
<path d="M15.2129 18.6553C18.4289 18.7367 21.8895 20.1209 23.5586 23.2148C24.2914 24.314 24.6172 25.5765 24.6172 27.042L21.584 53.0176C19.8348 67.2184 70.3624 51.4542 79.8623 32.1934L72.7373 53.0176C45.7063 89.0888 21.5843 78.9099 13.8291 63.9785C13.0153 63.1632 16.822 44.3446 16.8223 43.1221L18.877 25.4541C18.7141 26.309 17.8588 28.0183 13.7881 29.2803C4.4656 32.537 5.36159 42.796 14.3584 41.127C14.3584 41.127 6.05358 45.4419 2.91895 43.04C-1.27406 39.4983 1.53458 30.2169 14.4395 28.5479C19.1617 27.5708 18.7139 23.9473 18.7139 23.9473C18.7137 22.6853 18.1435 20.8945 17.3701 20.1211C16.5967 19.3885 15.2537 19.0222 13.8291 18.9814C9.51398 19.185 7.68177 23.1741 7.55957 25.291L4.26172 24.1514C4.99449 21.0167 10.4092 18.4517 15.2129 18.6553ZM56.6006 58.6221C41.8601 68.769 28.2919 64.1379 23.3506 60.5537C24.5512 63.5812 29.3749 69.5527 39.0625 69.2188C48.75 68.8846 54.7909 62.015 56.6006 58.6221ZM55.9658 11.084L51.2383 20.3311C53.8687 16.9542 58.222 14.0271 61.7656 12.4268C68.0755 9.53664 75.5253 12.3455 78.375 18.6553C81.2246 24.9651 78.4562 32.3742 72.1465 35.2646C65.8366 38.1143 52.3214 34.9543 49.4307 28.6445C48.8286 27.3115 48.7508 25.9449 49.0605 24.5918L43.834 34.8174C38.0533 49.9205 32.3133 52.1185 26.5732 47.2334C21.9325 40.9642 33.7788 34.6136 42.4092 35.3057C37.524 27.8965 29.3418 23.2552 29.3418 10.9609H29.626V11.002H35.4482C35.0411 22.1156 43.5901 25.8608 45.707 30.3389L55.6396 10.9209L55.9658 11.084ZM42.4502 35.3467C34.4711 35.1431 27.7535 39.0918 29.2598 43.1221C29.9518 45.0354 31.7025 46.3384 33.6973 46.6641C37.524 47.2747 40.0885 42.5112 42.8975 36.0791L42.8164 36.0381L42.8574 35.998C42.7354 35.7539 42.5723 35.5501 42.4502 35.3467ZM73.2861 20.9756C70.4364 14.7472 65.3476 11.0432 61.8467 12.6309C58.3866 14.178 57.8165 20.5281 60.666 26.7158C63.4749 32.9035 68.5634 36.6488 72.0645 35.0615C75.5655 33.4739 76.0951 27.1634 73.2861 20.9756Z" fill="#620F85"/>
</svg>
